<svg enable-background="new 0 0 512 512" viewBox="0 0 512 512" xmlns="http://www.w3.org/2000/svg"><path d="m428.876 132.28c.867-7.045 1.32-14.218 1.32-21.497 0-61.183-49.599-110.783-110.783-110.783h-185.142c-11.646 0-21.589 8.41-23.521 19.894l-68.22 405.475c-2.448 14.55 8.768 27.809 23.521 27.809h67.711c11.646 0 21.776-8.404 23.707-19.889 0 0 .113-.673.317-1.885h.001l-9.436 56.086c-2.156 12.823 7.729 24.51 20.732 24.51h59.237c10.265 0 19.029-7.413 20.731-17.535l16.829-100.02c2.901-17.242 17.828-29.867 35.311-29.867h15.562c84.53 0 153.054-68.525 153.054-153.054 0-32.709-16.168-61.622-40.931-79.244z" fill="#002987"/><path d="m428.876 132.28c-10.594 86.179-84.044 152.91-173.086 152.91h-51.665c-11.661 0-21.732 7.767-24.891 18.749l-30.882 183.549c-2.157 12.824 7.728 24.512 20.731 24.512h59.237c10.265 0 19.029-7.413 20.731-17.535l16.829-100.02c2.901-17.242 17.828-29.867 35.311-29.867h15.562c84.53 0 153.054-68.525 153.054-153.054 0-32.709-16.168-61.622-40.931-79.244z" fill="#0085cc"/><path d="m204.125 285.19h51.665c89.043 0 162.493-66.731 173.086-152.909-15.888-11.306-35.304-17.978-56.29-17.978h-134.85c-15.353 0-28.462 11.087-31.01 26.227l-27.493 163.408c3.159-10.982 13.231-18.748 24.892-18.748z" fill="#00186a"/></svg>